<svg xmlns="http://www.w3.org/2000/svg" viewBox="0 0 800 500" width="800" height="500">
  <defs>
    <linearGradient id="bgGrad" x1="0%" y1="0%" x2="100%" y2="100%">
      <stop offset="0%" stop-color="#0f172a" />
      <stop offset="100%" stop-color="#1e1b4b" />
    </linearGradient>
    <linearGradient id="cardGrad" x1="0%" y1="0%" x2="100%" y2="100%">
      <stop offset="0%" stop-color="#1e293b" />
      <stop offset="100%" stop-color="#0f172a" />
    </linearGradient>
    <linearGradient id="accentGrad" x1="0%" y1="0%" x2="100%" y2="0%">
      <stop offset="0%" stop-color="#6366f1" />
      <stop offset="100%" stop-color="#a855f7" />
    </linearGradient>
    <linearGradient id="goldGrad" x1="0%" y1="0%" x2="100%" y2="0%">
      <stop offset="0%" stop-color="#f59e0b" />
      <stop offset="100%" stop-color="#fbbf24" />
    </linearGradient>
  </defs>
  <rect width="800" height="500" rx="16" fill="url(#bgGrad)" />
  
  <!-- Header Bar -->
  <rect x="40" y="30" width="720" height="50" rx="10" fill="#1e293b" stroke="#334155" stroke-width="1.5" />
  <circle cx="70" cy="55" r="14" fill="url(#accentGrad)" />
  <rect x="100" y="48" width="160" height="14" rx="4" fill="#94a3b8" />
  <rect x="560" y="44" width="80" height="22" rx="6" fill="#3b82f6" opacity="0.8" />
  <rect x="650" y="44" width="85" height="22" rx="6" fill="#10b981" opacity="0.9" />

  <!-- Breadcrumb & Tag Pills -->
  <rect x="40" y="95" width="240" height="18" rx="4" fill="#475569" />
  <rect x="580" y="95" width="180" height="28" rx="6" fill="url(#accentGrad)" />

  <!-- Main Grid Layout (Posts/Editorial Template) -->
  <!-- Main Featured Article Card -->
  <rect x="40" y="135" width="460" height="325" rx="12" fill="url(#cardGrad)" stroke="#334155" stroke-width="1.5" />
  <rect x="60" y="155" width="420" height="150" rx="8" fill="#334155" />
  <path d="M100 240 L180 170 L260 220 L340 160 L420 230" stroke="#6366f1" stroke-width="3" fill="none" opacity="0.7"/>
  <circle cx="180" cy="170" r="5" fill="#a855f7" />
  <circle cx="340" cy="160" r="5" fill="#6366f1" />
  <rect x="60" y="320" width="110" height="18" rx="4" fill="url(#goldGrad)" />
  <rect x="60" y="348" width="350" height="18" rx="4" fill="#f8fafc" />
  <rect x="60" y="375" width="400" height="12" rx="3" fill="#64748b" />
  <rect x="60" y="393" width="280" height="12" rx="3" fill="#64748b" />
  <circle cx="80" cy="428" r="9" fill="#a855f7" />
  <rect x="96" y="424" width="90" height="10" rx="3" fill="#94a3b8" />
  <rect x="390" y="422" width="70" height="16" rx="4" fill="#334155" />

  <!-- Sidebar Articles -->
  <rect x="520" y="135" width="240" height="155" rx="12" fill="url(#cardGrad)" stroke="#334155" stroke-width="1.5" />
  <rect x="535" y="150" width="70" height="16" rx="4" fill="#6366f1" opacity="0.85" />
  <rect x="535" y="174" width="180" height="14" rx="3" fill="#f1f5f9" />
  <rect x="535" y="194" width="200" height="10" rx="3" fill="#64748b" />
  <rect x="535" y="210" width="150" height="10" rx="3" fill="#64748b" />
  <rect x="535" y="240" width="90" height="20" rx="4" fill="#1e293b" stroke="#475569" stroke-width="1" />

  <rect x="520" y="305" width="240" height="155" rx="12" fill="url(#cardGrad)" stroke="#334155" stroke-width="1.5" />
  <rect x="535" y="320" width="70" height="16" rx="4" fill="#10b981" opacity="0.85" />
  <rect x="535" y="344" width="180" height="14" rx="3" fill="#f1f5f9" />
  <rect x="535" y="364" width="200" height="10" rx="3" fill="#64748b" />
  <rect x="535" y="380" width="150" height="10" rx="3" fill="#64748b" />
  <rect x="535" y="410" width="90" height="20" rx="4" fill="#1e293b" stroke="#475569" stroke-width="1" />

  <!-- Title Badge Overlay -->
  <rect x="40" y="470" width="720" height="24" rx="6" fill="#1e1b4b" opacity="0.9" />
  <text x="400" y="486" fill="#a5f3fc" font-size="11" font-family="sans-serif" font-weight="bold" text-anchor="middle">قالب اختصاصی مدیریت و نمایش مقالات (/admin/posts)</text>
</svg>